# xmcd CD database file
#
# Track frame offsets:
#	150
#	11990
#	46319
#	74630
#	100141
#	135105
#	167791
#	195093
#
# Disc length: 2907 seconds
#
# Revision: 0
# Processed by: cddbd v1.5.2PL0 Copyright (c) Steve Scherf et al.
# Submitted via: CDex 1.81
#
DISCID=630b5908
DTITLE=Wesseltoft Schwarz Berglund - Trialogue
DYEAR=2011
DGENRE=Jazz
TTITLE0=Interlude
TTITLE1=Valiant
TTITLE2=Headbanger Polka
TTITLE3=Movement Eleven
TTITLE4=Take a Quick Break
TTITLE5=Movement Seventeen
TTITLE6=This Is My Day
TTITLE7=Round Midnight
EXTD=YEAR: 2011
EXTT0=
EXTT1=
EXTT2=
EXTT3=
EXTT4=
EXTT5=
EXTT6=
EXTT7=
PLAYORDER=
